<svg id="cart" xmlns="http://www.w3.org/2000/svg" width="16.757" height="17.417" viewBox="0 0 16.757 17.417">
  <g id="Group_4" data-name="Group 4" transform="translate(0 0)">
    <g id="Group_3" data-name="Group 3" transform="translate(0 0)">
      <path id="Path_2" data-name="Path 2" d="M132.143,382.711a2.2,2.2,0,1,0,2.2,2.2A2.2,2.2,0,0,0,132.143,382.711Zm0,3.079a.88.88,0,1,1,.88-.88A.88.88,0,0,1,132.143,385.79Z" transform="translate(-125.854 -369.692)" fill="#47b913"/>
      <path id="Path_3" data-name="Path 3" d="M323.494,382.711a2.2,2.2,0,1,0,2.2,2.2A2.2,2.2,0,0,0,323.494,382.711Zm0,3.079a.88.88,0,1,1,.88-.88A.88.88,0,0,1,323.494,385.79Z" transform="translate(-310.695 -369.692)" fill="#47b913"/>
      <path id="Path_4" data-name="Path 4" d="M26.312,4.3a.66.66,0,0,0-.516-.249H14.244l-.6-3.031a.66.66,0,0,0-.528-.521L10.477.011a.66.66,0,0,0-.238,1.3l2.2.4L14.373,11.5a.66.66,0,0,0,.647.532h9.236a.66.66,0,0,0,.643-.512l1.539-6.663A.659.659,0,0,0,26.312,4.3Zm-2.58,6.414h-8.17L14.5,5.366H24.966Z" transform="translate(-9.698 0)" fill="#47b913"/>
    </g>
  </g>
</svg>
